<svg width="96" height="96" xmlns="http://www.w3.org/2000/svg" xmlns:xlink="http://www.w3.org/1999/xlink" xml:space="preserve" overflow="hidden"><g><path d="M48 10C27 10 10 27 10 48 10 69 27 86 48 86 69 86 86 69 86 48 86 27 69 10 48 10ZM14 48C14 39.1 17.4 31.1 23 25 23.9 25.5 24.8 26.3 25 27L25 33.3C25 33.7 25.1 34.2 25.4 34.5L32 43 32.5 42.5C32.8 42.2 32.9 41.7 32.7 41.3L31.5 39.3C31 38.5 31.8 37.5 32.7 37.8 33 37.9 33.2 38.1 33.3 38.3L36.6 44.8C37 45.5 37.6 46.1 38.3 46.3L42.7 47.8C43 47.9 43.2 48.1 43.3 48.3L43.6 48.8C43.9 49.5 44.6 49.9 45.4 49.9L46.6 49.9C46.9 49.9 47.2 50.1 47.4 50.3L48.7 52.2C49 52.6 49.4 52.9 49.9 53L52 53.5C52.6 53.6 52.9 54.3 52.7 54.8 52.7 54.8 51.1 56.4 51.1 58.7 51.1 65.3 57.1 67.2 57.1 68.7 57.1 72.8 56.5 78.5 56.2 80.7 53.6 81.3 50.9 81.7 48.1 81.7 29.3 82 14 66.7 14 48ZM60.8 79.5C63 77.6 66.7 74.4 68 73 69.7 71.1 70 68 70 68 70 68 77 66.1 77 61 77 57.5 70 56 70 56 68.8 52.1 62.9 50 58 50 56.9 50 53 52 53 52L51 51 51 48C51 47.4 50.6 47 50 47L48 47 48 44C48 43.4 47.6 43 47 43L46 43 44.9 43.7C43.9 44.4 42.5 44 42 42.9 42 42.9 41 41.5 41 40.9 41 36.6 46 36.9 46 36.9L48.2 36.9C48.7 36.9 49.1 37.2 49.2 37.7L49.8 40.2C49.9 40.6 50.3 41 50.8 41L51.2 41C51.7 41 52.1 40.7 52.2 40.2L52.9 36.5C53 36.2 53.1 35.9 53.3 35.6L56.1 32.1C56.7 31.4 57.5 31 58.4 31L61 31C61.6 31 62 30.6 62 30L62 29 61.7 28.7C61.1 28.1 61.5 27 62.4 27L63 27C63.6 27 64 27.4 64 28 64 28.6 64.4 29 65 29L66 29 66.6 26.4C66.8 25.5 66.4 24.7 65.7 24.2L57.2 19.1C57.1 19 56.9 19 56.7 19L55 19C53.9 19 53 19.9 53 21L53 22C53 22.6 52.6 23 52 23L51 23 50 22 47 22C46.4 22 46 21.6 46 21L46 18.5C46 18.2 46.1 17.9 46.4 17.7L52.8 15 53.8 16.7C54 16.9 54.2 17 54.5 17L57 17C57.6 17 58 16.6 58 16L58 15.5C71.9 19.8 82 32.7 82 48 82 62.2 73.2 74.4 60.8 79.5Z"/><path d="M60.3 43.8 55.5 42.2C55.1 42.1 54.8 42.1 54.4 42.2L51 43C50.7 43.2 50.6 43.6 51 44L55.6 44C55.9 44 56.1 44 56.3 44.1L59.8 45.5C60.4 45.7 61 45.3 61 44.7 61 44.3 60.7 43.9 60.3 43.8Z"/></g></svg>